<svg version="1.1" xmlns="http://www.w3.org/2000/svg" xmlns:xlink="http://www.w3.org/1999/xlink" width="48" height="48"><defs><linearGradient x1="12.76675" y1="12.76675" x2="60.02978" y2="60.02978" gradientUnits="userSpaceOnUse" id="color-1"><stop offset="0.43" stop-color="#000000" stop-opacity="0.33"></stop><stop offset="1" stop-color="#000000" stop-opacity="0"></stop></linearGradient><filter id="dropshadow-base"><feColorMatrix type="matrix" values="0 0 0 0 0  0 0 0 0 0  0 0 0 0 0  0 0 0 .8 0"></feColorMatrix> <feOffset dx="0" dy="1"></feOffset> <feGaussianBlur stdDeviation="1"></feGaussianBlur> <feComposite in="SourceGraphic"></feComposite></filter><filter id="dropshadow-banner" x="-10%" y="-10%" width="120%" height="130%"><feColorMatrix type="matrix" values="0 0 0 0 0  0 0 0 0 0  0 0 0 0 0  0 0 0 .4 0"></feColorMatrix> <feOffset dx="0" dy="1"></feOffset> <feGaussianBlur stdDeviation="0.5"></feGaussianBlur> <feComposite in="SourceGraphic"></feComposite></filter></defs><g fill="none" fill-rule="nonzero" stroke="none" stroke-width="none" stroke-linecap="butt" stroke-linejoin="miter" stroke-miterlimit="10" stroke-dasharray="" stroke-dashoffset="0" font-family="none" font-weight="none" font-size="none" text-anchor="none" style="mix-blend-mode: normal"><path d="M7,43c-1.10457,0 -2,-0.89543 -2,-2v-34c0,-1.10457 0.89543,-2 2,-2h34c1.10457,0 2,0.89543 2,2v34c0,1.10457 -0.89543,2 -2,2z" id="base 1 5 1 1 1" fill="#a82d34" stroke-width="1"></path><path d="M29.61663,12.76675h5.61663l7.76675,7.76675v5.61663zM12.76675,35.23325v-5.61663l13.38337,13.38337h-5.61663zM12.76675,18.38337l5.61663,-5.61663l2.06449,2.06449c3.51875,-1.36202 7.6619,-0.62262 10.50271,2.21819l0,0l12.04942,12.04942v11.90115c0,1.10457 -0.89543,2 -2,2h-11.90115l-12.04943,-12.04943c-2.84081,-2.84081 -3.58021,-6.98396 -2.21819,-10.50271z" fill="url(#color-1)" stroke-width="1"></path><path d="M29.61663,12.76675l5.61663,5.61663v-5.61663zM35.23325,29.61663l-5.61663,5.61663h5.61663zM18.38337,35.23325l-5.61663,-5.61663v5.61663zM12.76675,18.38337l5.61663,-5.61663h-5.61663zM30.95057,17.04943c-3.84037,-3.84037 -10.06078,-3.84037 -13.90115,0c-3.84037,3.84037 -3.84037,10.06078 0,13.90115c3.84037,3.84037 10.06078,3.84037 13.90115,0c3.84037,-3.84037 3.84037,-10.06078 0,-13.90115zM29.406,29.406c-2.98383,2.98383 -7.82817,2.98383 -10.81201,0c-2.98383,-2.98383 -2.98383,-7.82817 0,-10.81201c2.98383,-2.98383 7.82817,-2.98383 10.81201,0c2.98383,2.98383 2.98383,7.82817 0,10.81201z" fill="none" stroke-width="0"></path><path d="M35.23325,12.76675v5.61663l-5.61663,-5.61663zM35.23325,35.23325h-5.61663l5.61663,-5.61663zM12.76675,35.23325v-5.61663l5.61663,5.61663zM12.76675,12.76675h5.61663l-5.61663,5.61663zM30.95057,30.95057c-3.84037,3.84037 -10.06078,3.84037 -13.90115,0c-3.84037,-3.84037 -3.84037,-10.06078 0,-13.90115c3.84037,-3.84037 10.06078,-3.84037 13.90115,0c3.84037,3.84037 3.84037,10.06078 0,13.90115zM29.406,18.594c-2.98383,-2.98383 -7.82817,-2.98383 -10.81201,0c-2.98383,2.98383 -2.98383,7.82817 0,10.81201c2.98383,2.98383 7.82817,2.98383 10.81201,0c2.98383,-2.98383 2.98383,-7.82817 0,-10.81201z" fill="#ffffff" stroke-width="0"></path><path d="M2,24c0,-12.15026 9.84974,-22 22,-22c12.15026,0 22,9.84974 22,22c0,12.15026 -9.84974,22 -22,22c-12.15026,0 -22,-9.84974 -22,-22z" id="base 1 1 1" fill="none" stroke-width="1"></path><g fill="#000000" stroke-width="1" font-family="Roboto, sans-serif" font-weight="400" font-size="14" text-anchor="start"></g><rect x="2" y="2" width="44" height="22" fill="none" stroke-width="1"></rect><path d="M2,24v-22h44v22z" fill="none" stroke-width="1"></path><path d="M2,24v-22h44v22z" fill="none" stroke-width="1"></path><path d="M2,24v-22h44v22z" fill="none" stroke-width="1"></path><path d="M2,24v-22h44v22z" fill="none" stroke-width="1"></path></g></svg>